<svg width="450" height="500" viewBox="0 0 450 500" fill="none" xmlns="http://www.w3.org/2000/svg">
<path d="M225 145.833V62.5H37.5V437.5H412.5V145.833H225ZM112.5 395.833H75V354.167H112.5V395.833ZM112.5 312.5H75V270.833H112.5V312.5ZM112.5 229.167H75V187.5H112.5V229.167ZM112.5 145.833H75V104.167H112.5V145.833ZM187.5 395.833H150V354.167H187.5V395.833ZM187.5 312.5H150V270.833H187.5V312.5ZM187.5 229.167H150V187.5H187.5V229.167ZM187.5 145.833H150V104.167H187.5V145.833ZM375 395.833H225V354.167H262.5V312.5H225V270.833H262.5V229.167H225V187.5H375V395.833ZM337.5 229.167H300V270.833H337.5V229.167ZM337.5 312.5H300V354.167H337.5V312.5Z" fill="black" fill-opacity="0.8"/>
</svg>
